<svg width="450" height="450" viewBox="0 0 450 450" fill="none" xmlns="http://www.w3.org/2000/svg">
<rect width="450" height="450" rx="225" fill="black"/>
<path d="M183.475 287.971C184.256 288.361 186.062 289.191 188.895 290.461C191.727 291.633 195.584 292.756 200.467 293.83C205.35 294.904 210.672 295.441 216.434 295.441C228.445 295.441 239.09 292.609 248.367 286.945C257.742 281.281 262.43 273.42 262.43 263.361C262.43 256.916 260.428 251.545 256.424 247.248C252.42 242.854 247.439 239.289 241.482 236.555C235.623 233.82 227.518 230.549 217.166 226.74C203.592 221.955 192.605 217.463 184.207 213.264C175.906 209.064 168.777 203.01 162.82 195.1C156.961 187.189 154.031 177.033 154.031 164.631C154.031 144.807 160.77 129.914 174.246 119.953C187.82 109.992 204.812 105.012 225.223 105.012C233.621 105.012 242.508 105.939 251.883 107.795C261.258 109.553 269.266 111.408 275.906 113.361C282.547 115.217 286.746 116.438 288.504 117.023L287.039 168H267.557L257.303 135.92C256.521 135.725 254.617 135.188 251.59 134.309C248.562 133.332 244.656 132.453 239.871 131.672C235.086 130.891 230.301 130.5 225.516 130.5C212.723 130.5 202.859 133.381 195.926 139.143C188.992 144.807 185.525 151.643 185.525 159.65C185.525 166.096 187.527 171.516 191.531 175.91C195.535 180.207 200.516 183.771 206.473 186.604C212.527 189.436 220.975 192.756 231.814 196.564C244.803 201.154 255.447 205.5 263.748 209.602C272.049 213.703 279.08 219.514 284.842 227.033C290.701 234.455 293.631 243.879 293.631 255.305C293.631 269.66 290.115 281.818 283.084 291.779C276.053 301.643 266.58 308.967 254.666 313.752C242.85 318.537 229.715 320.93 215.262 320.93C205.887 320.93 196.658 320.051 187.576 318.293C178.494 316.535 170.926 314.729 164.871 312.873C158.914 310.92 155.105 309.65 153.445 309.064V256.477H177.469L183.475 287.971Z" fill="white"/>
</svg>
